<svg width="760" height="560" viewBox="0 0 760 560" fill="none" xmlns="http://www.w3.org/2000/svg">
  <rect width="760" height="560" rx="28" fill="#111827"/>
  <rect x="44" y="44" width="672" height="472" rx="18" fill="#F7F8FB"/>
  <rect x="82" y="92" width="270" height="336" rx="14" fill="#FFFFFF" stroke="#D9DEE7" stroke-width="2"/>
  <rect x="386" y="92" width="292" height="152" rx="14" fill="#111827"/>
  <rect x="386" y="276" width="292" height="152" rx="14" fill="#FFFFFF" stroke="#D9DEE7" stroke-width="2"/>
  <rect x="112" y="124" width="84" height="84" rx="18" fill="#111827"/>
  <text x="130" y="177" fill="#F7F8FB" font-family="Arial, Helvetica, sans-serif" font-size="34" font-weight="800">KT</text>
  <rect x="112" y="238" width="198" height="16" rx="8" fill="#2457D6"/>
  <rect x="112" y="272" width="160" height="14" rx="7" fill="#D9DEE7"/>
  <rect x="112" y="304" width="198" height="14" rx="7" fill="#D9DEE7"/>
  <rect x="112" y="336" width="118" height="14" rx="7" fill="#D9DEE7"/>
  <path d="M428 142H636" stroke="#7DD3FC" stroke-width="12" stroke-linecap="round"/>
  <path d="M428 178H580" stroke="#0B7A61" stroke-width="12" stroke-linecap="round"/>
  <path d="M428 214H622" stroke="#C8523B" stroke-width="12" stroke-linecap="round"/>
  <circle cx="432" cy="332" r="20" fill="#2457D6"/>
  <circle cx="500" cy="332" r="20" fill="#0B7A61"/>
  <circle cx="568" cy="332" r="20" fill="#C8523B"/>
  <rect x="428" y="384" width="196" height="14" rx="7" fill="#D9DEE7"/>
  <rect x="428" y="414" width="126" height="14" rx="7" fill="#D9DEE7"/>
  <path d="M106 464H654" stroke="#111827" stroke-width="8" stroke-linecap="round"/>
</svg>
