<svg xmlns="http://www.w3.org/2000/svg" viewBox="0 0 520 360" role="img" aria-labelledby="title desc">
    <title id="title">Expense Tracker Pro app thumbnail</title>
    <desc id="desc">Dark expense tracker dashboard with summary cards, search field, form controls, and transaction table.</desc>
    <rect width="520" height="360" rx="22" fill="#101010"/>
    <rect x="20" y="20" width="480" height="320" rx="16" fill="#1f1f1f" stroke="#3d3d3d"/>
    <rect x="38" y="38" width="82" height="28" rx="7" fill="#087bf7"/>
    <text x="51" y="57" fill="#ffffff" font-family="Arial, Helvetica, sans-serif" font-size="12">Dark Theme</text>
    <text x="166" y="83" fill="#ffffff" font-family="Arial, Helvetica, sans-serif" font-size="28" font-weight="800">Expense Tracker Pro</text>
    <rect x="38" y="112" width="380" height="32" rx="7" fill="#262626" stroke="#4c4c4c"/>
    <text x="52" y="133" fill="#909090" font-family="Arial, Helvetica, sans-serif" font-size="13">Search expense...</text>
    <rect x="426" y="112" width="58" height="32" rx="7" fill="#087bf7"/>
    <text x="440" y="133" fill="#ffffff" font-family="Arial, Helvetica, sans-serif" font-size="13">Search</text>
    <rect x="38" y="162" width="104" height="58" rx="10" fill="#2a2a2a"/>
    <rect x="154" y="162" width="104" height="58" rx="10" fill="#2a2a2a"/>
    <rect x="270" y="162" width="104" height="58" rx="10" fill="#2a2a2a"/>
    <rect x="386" y="162" width="98" height="58" rx="10" fill="#2a2a2a"/>
    <text x="60" y="187" fill="#ffffff" font-family="Arial, Helvetica, sans-serif" font-size="13" font-weight="700">Total</text>
    <text x="66" y="211" fill="#ffffff" font-family="Arial, Helvetica, sans-serif" font-size="22" font-weight="800">250.0</text>
    <text x="173" y="187" fill="#ffffff" font-family="Arial, Helvetica, sans-serif" font-size="13" font-weight="700">Transactions</text>
    <text x="200" y="211" fill="#ffffff" font-family="Arial, Helvetica, sans-serif" font-size="22" font-weight="800">2</text>
    <text x="295" y="187" fill="#ffffff" font-family="Arial, Helvetica, sans-serif" font-size="13" font-weight="700">Categories</text>
    <text x="318" y="211" fill="#ffffff" font-family="Arial, Helvetica, sans-serif" font-size="22" font-weight="800">1</text>
    <text x="416" y="187" fill="#ffffff" font-family="Arial, Helvetica, sans-serif" font-size="13" font-weight="700">Food</text>
    <text x="430" y="211" fill="#ffffff" font-family="Arial, Helvetica, sans-serif" font-size="22" font-weight="800">2</text>
    <rect x="38" y="244" width="108" height="32" rx="6" fill="#262626" stroke="#4c4c4c"/>
    <rect x="156" y="244" width="90" height="32" rx="6" fill="#262626" stroke="#4c4c4c"/>
    <rect x="256" y="244" width="76" height="32" rx="6" fill="#262626" stroke="#4c4c4c"/>
    <rect x="342" y="244" width="72" height="32" rx="6" fill="#262626" stroke="#4c4c4c"/>
    <rect x="424" y="244" width="60" height="32" rx="6" fill="#087bf7"/>
    <text x="440" y="265" fill="#ffffff" font-family="Arial, Helvetica, sans-serif" font-size="12">Add</text>
    <rect x="38" y="296" width="446" height="26" fill="#333333" stroke="#d0d0d0"/>
    <text x="66" y="314" fill="#ffffff" font-family="Arial, Helvetica, sans-serif" font-size="12" font-weight="700">Name</text>
    <text x="172" y="314" fill="#ffffff" font-family="Arial, Helvetica, sans-serif" font-size="12" font-weight="700">Category</text>
    <text x="280" y="314" fill="#ffffff" font-family="Arial, Helvetica, sans-serif" font-size="12" font-weight="700">Amount</text>
    <text x="390" y="314" fill="#ffffff" font-family="Arial, Helvetica, sans-serif" font-size="12" font-weight="700">Actions</text>
</svg>
