<svg width="1200" height="630" viewBox="0 0 1200 630" fill="none" xmlns="http://www.w3.org/2000/svg">
  <rect width="1200" height="630" fill="#F7F8FB"/>
  <rect x="70" y="70" width="1060" height="490" rx="32" fill="#111827"/>
  <rect x="118" y="118" width="150" height="150" rx="30" fill="#F7F8FB"/>
  <path d="M154 224V162H168V188L196 162H216L186 190L220 224H200L177 200L168 209V224H154Z" fill="#111827"/>
  <path d="M215 224V176H193V162H244V176H230V224H215Z" fill="#2457D6"/>
  <text x="310" y="194" fill="#F7F8FB" font-family="Arial, Helvetica, sans-serif" font-size="72" font-weight="800">KapriTech</text>
  <text x="310" y="268" fill="#7DD3FC" font-family="Arial, Helvetica, sans-serif" font-size="36" font-weight="700">Suman Kapri is building in public</text>
  <text x="120" y="406" fill="#F7F8FB" font-family="Arial, Helvetica, sans-serif" font-size="44" font-weight="800">Day 1 portfolio. Real learning. Useful products.</text>
  <rect x="120" y="468" width="250" height="18" rx="9" fill="#0B7A61"/>
  <rect x="400" y="468" width="190" height="18" rx="9" fill="#C8523B"/>
  <rect x="620" y="468" width="260" height="18" rx="9" fill="#7DD3FC"/>
</svg>
